# xmcd
#
# Track frame offsets: 
#        150
#        16765
#        33275
#        51152
#        67302
#        82740
#        100097
#        117015
#        133545
#        149185
#        167087
#        183865
#        198407
#        215602
#
# Disc length: 3111 seconds
#
# Revision: 0
# Processed by: cddbd v1.5.2PL0 Copyright (c) Steve Scherf et al.
# Submitted via: ExactAudioCopy v0.99pb3
#
DISCID=c20c250e
DTITLE=มนต์สิทธ์ คำสร้อย - มนต์สิทธิ์ ฮิต ตลอดาล
DYEAR=2000
DGENRE=Country
TTITLE0=กำลังใจ
TTITLE1=สั่งนาง
TTITLE2=กลัว
TTITLE3=จดหมายผิดซอง
TTITLE4=ในฝัน
TTITLE5=ร้องไห้ใกล้หนองหาน
TTITLE6=ผ้ผิดหวัง
TTITLE7=โกสัมพี
TTITLE8=ช้ำรักจากสกล
TTITLE9=คิดถึงจังเลย
TTITLE10=ขายควายช่วยแม่
TTITLE11=ไม่รักแต่คิดถึง
TTITLE12=นางลวง
TTITLE13=สาวคลองจินดา
EXTD=
EXTT0=
EXTT1=
EXTT2=
EXTT3=
EXTT4=
EXTT5=
EXTT6=
EXTT7=
EXTT8=
EXTT9=
EXTT10=
EXTT11=
EXTT12=
EXTT13=
PLAYORDER=
